<svg width="1362" height="600" viewBox="0 0 1362 600" fill="none" xmlns="http://www.w3.org/2000/svg">
<path d="M288.662 552.903C253.258 551.618 231.345 541.126 225.77 522.791L225.122 520.66L225.031 484.715C224.927 443.576 224.963 442.743 227.155 436.192C231.153 424.239 240.608 416.532 255.396 413.173L258.665 412.43L299.324 412.25C328.454 412.122 340.532 411.976 341.921 411.736C350.063 410.333 355.404 408.233 360.418 404.461C366.408 399.956 371.352 392.244 373.561 383.961C375.221 377.74 375.176 378.419 375.356 356.565L375.522 336.249H390.165H404.808L407.651 337.042C422.885 341.294 433.945 355.718 438.654 377.475C440.465 385.844 440.484 386.153 440.487 407.502C440.49 428.277 440.481 428.459 439.029 435.274C437.601 441.972 435.732 447.422 432.94 453.033C427.308 464.348 419.004 472.006 408.504 475.568C402.505 477.603 407.527 477.433 348.512 477.602L295.343 477.754V482.584V487.415L330.599 487.557L365.855 487.699L365.998 505.032C366.076 514.565 366.042 523.183 365.922 524.183C365.632 526.601 364.605 529.471 363.136 531.971C361.623 534.544 357.031 539.148 353.914 541.215C344.445 547.495 330.008 551.323 310.981 552.599C304.579 553.029 295.513 553.152 288.662 552.903ZM337.565 530.443C344.361 529.342 349.225 522.696 348.105 516.043C347.181 510.555 342.941 506.31 337.481 505.406C329.146 504.025 321.565 511.675 323.049 519.969C324.127 526.003 328.969 530.251 335.291 530.712C335.525 530.729 336.549 530.608 337.565 530.443Z" fill="white"/>
<path fill-rule="evenodd" clip-rule="evenodd" d="M218.124 521.709L218.031 484.733C217.979 464.269 217.96 453.554 218.239 447.177C218.539 440.326 219.224 437.836 220.516 433.972L227.155 436.192C224.963 442.743 224.927 443.576 225.031 484.715L225.122 520.66L225.77 522.791C231.345 541.126 253.258 551.618 288.662 552.903C295.513 553.152 304.579 553.029 310.981 552.599C330.008 551.323 344.445 547.495 353.914 541.215C357.031 539.148 361.623 534.544 363.136 531.971C364.605 529.471 365.632 526.601 365.922 524.183C366.042 523.183 366.076 514.565 365.998 505.032L365.855 487.699L295.343 487.415V477.754L348.512 477.602C398.403 477.459 402.527 477.559 406.235 476.364C406.913 476.145 407.577 475.883 408.504 475.568C419.005 472.006 427.308 464.348 432.94 453.033C435.732 447.422 437.601 441.972 439.029 435.274C440.481 428.459 440.49 428.277 440.487 407.502C440.484 386.153 440.465 385.844 438.654 377.475C433.945 355.718 422.885 341.294 407.651 337.042L404.808 336.249H375.522L375.356 356.565C375.22 373.107 375.212 376.739 374.497 380.225C374.267 381.344 373.965 382.449 373.561 383.961C371.352 392.244 366.408 399.956 360.418 404.461C355.404 408.233 350.063 410.333 341.921 411.736C340.532 411.976 328.454 412.122 299.324 412.25L258.665 412.43L255.396 413.173C240.608 416.532 231.153 424.239 227.155 436.192L220.516 433.972C225.458 419.199 237.24 410.119 253.845 406.347L257.865 405.434L299.293 405.251C313.856 405.186 324.135 405.117 330.941 405.035C334.347 404.994 336.855 404.95 338.582 404.902C339.634 404.873 340.246 404.844 340.554 404.83C340.841 404.816 340.864 404.815 340.733 404.838C348.112 403.566 352.32 401.793 356.21 398.867C360.771 395.437 364.931 389.155 366.798 382.157C366.835 382.018 366.871 381.883 366.906 381.753C367.634 379.027 367.865 378.161 368.029 375.668C368.223 372.692 368.262 367.92 368.347 357.622L368.58 329.249H405.766L409.533 330.3C428.244 335.522 440.491 352.873 445.496 375.995C446.411 380.222 446.969 382.834 447.236 387.194C447.484 391.256 447.486 396.947 447.487 407.501V407.55C447.489 417.794 447.49 423.267 447.294 426.99C447.081 431.05 446.621 433.234 445.875 436.733C444.336 443.954 442.284 449.969 439.207 456.152C432.877 468.87 423.252 477.957 410.753 482.197C410.567 482.26 410.345 482.341 410.092 482.432C409.151 482.773 407.792 483.265 406.342 483.571C404.411 483.977 402.114 484.163 398.626 484.281C393.926 484.44 386.236 484.492 372.83 484.535L372.997 504.974C373.037 509.763 373.048 514.33 373.034 517.835C373.027 519.585 373.014 521.088 372.994 522.229C372.978 523.154 372.955 524.321 372.872 525.016C372.447 528.557 371.037 532.342 369.171 535.518C367.956 537.585 365.922 539.883 364.082 541.726C362.177 543.637 359.879 545.658 357.783 547.049C346.829 554.314 330.963 558.275 311.449 559.584C304.791 560.03 295.483 560.156 288.408 559.899C270.168 559.236 254.788 556.195 243.007 550.554C231.105 544.856 222.567 536.318 219.073 524.827L218.124 521.709ZM336.446 523.533C339.542 523.032 341.656 519.897 341.202 517.205C340.771 514.642 338.826 512.724 336.337 512.311C332.742 511.716 329.312 515.232 329.939 518.737C330.406 521.349 332.331 523.309 335.367 523.688C335.663 523.652 336.05 523.597 336.446 523.533ZM337.565 530.443L336.446 523.533ZM337.565 530.443L336.446 523.533C336.446 523.533 336.446 523.533 336.446 523.533M337.565 530.443C344.361 529.342 349.225 522.696 348.105 516.043C347.181 510.555 342.941 506.31 337.481 505.406C329.146 504.025 321.565 511.675 323.049 519.969C324.128 526.003 328.969 530.251 335.291 530.712C335.525 530.729 336.549 530.608 337.565 530.443Z" fill="#3E3E3E"/>
<path d="M187.688 479.174C179.691 477.721 171.815 472.877 166.25 465.988C155.709 452.94 150.388 431.188 151.056 403.876C151.472 386.856 154.018 374.222 159.198 363.474C165.874 349.62 175.849 341.404 189.315 338.668C192.265 338.069 192.413 338.067 244.362 338.088C273.012 338.099 296.662 338.028 296.919 337.93C297.327 337.773 297.386 337.14 297.386 332.951C297.386 330.311 297.354 328.12 297.315 328.082C297.276 328.045 281.379 327.949 261.988 327.869L226.732 327.724L226.658 309.412C226.578 289.355 226.562 289.588 228.28 285.904C234.237 273.135 251.783 265.377 279.9 263.08C281.933 262.914 287.435 262.703 292.126 262.611C323.255 262.001 346.089 267.69 358.092 279.045C359.422 280.302 361.154 282.18 361.943 283.217C363.735 285.575 365.966 290.076 366.821 293.058L367.472 295.332V333.123C367.472 368.399 367.438 371.094 366.957 373.614C366.338 376.865 364.85 381.434 363.61 383.892C359.316 392.402 351.405 398.533 340.919 401.478C334.109 403.39 337.202 403.264 292.126 403.46C247.362 403.654 250.067 403.55 243.791 405.322C231.602 408.765 222.647 418.253 219.009 431.58C217.374 437.571 217.41 437.011 217.231 459L217.065 479.459L203.417 479.505C193.114 479.541 189.259 479.459 187.688 479.174ZM262.212 309.186C267.386 306.757 270.502 301.062 269.565 295.748C268.701 290.845 265.333 286.933 260.761 285.522C253.456 283.267 245.833 287.92 244.485 295.458C243.389 301.588 246.936 307.557 252.937 309.676C254.278 310.149 255.14 310.245 257.438 310.177C259.943 310.102 260.512 309.984 262.212 309.186Z" fill="#009ACD"/>
<path fill-rule="evenodd" clip-rule="evenodd" d="M366.957 373.614C366.338 376.865 364.85 381.434 363.61 383.892C359.316 392.402 351.405 398.533 340.919 401.478C339.711 401.817 338.814 402.092 337.905 402.316C333.691 403.356 329.206 403.299 292.126 403.46C254.783 403.622 250.474 403.576 246.429 404.586C245.625 404.786 244.831 405.028 243.791 405.322C231.602 408.765 222.647 418.253 219.009 431.58C218.627 432.982 218.335 434.025 218.112 435.083C217.379 438.544 217.368 442.158 217.231 459L217.065 479.459L203.417 479.505C193.114 479.541 189.259 479.459 187.688 479.174C179.691 477.721 171.815 472.877 166.25 465.988C155.709 452.94 150.388 431.188 151.056 403.876C151.472 386.856 154.018 374.222 159.198 363.474C165.874 349.62 175.849 341.404 189.315 338.668C192.265 338.069 192.413 338.067 244.362 338.088C273.012 338.099 296.662 338.028 296.919 337.93C297.327 337.773 297.386 337.14 297.386 332.951C297.386 330.311 297.354 328.12 297.315 328.082C297.276 328.045 281.379 327.949 261.988 327.869L226.732 327.724L226.658 309.412C226.593 293.039 226.57 290.187 227.499 287.688C227.708 287.125 227.965 286.581 228.28 285.904C234.237 273.135 251.783 265.377 279.9 263.08C281.933 262.914 287.435 262.703 292.126 262.611C323.255 262.001 346.089 267.69 358.092 279.045C359.422 280.302 361.154 282.18 361.943 283.217C363.735 285.575 365.966 290.076 366.821 293.058L367.472 295.332V333.123C367.472 368.399 367.438 371.094 366.957 373.614ZM221.937 282.945C225.849 274.557 233.304 268.428 242.949 264.163C252.567 259.91 264.83 257.288 279.33 256.103C281.598 255.918 287.29 255.705 291.989 255.613C323.506 254.995 348.792 260.611 362.902 273.959C364.407 275.383 366.425 277.547 367.515 278.981C369.858 282.062 372.468 287.354 373.55 291.131L374.472 294.349V333.123C374.472 350.737 374.463 360.287 374.394 365.741C374.326 371.096 374.204 372.98 373.834 374.924C373.116 378.691 371.446 383.901 369.86 387.045C364.551 397.567 354.892 404.825 342.811 408.217C342.53 408.296 342.243 408.379 341.949 408.464C340.767 408.805 339.479 409.176 338.065 409.444C336.201 409.798 334.149 409.985 331.156 410.107C325.952 410.318 316.971 410.356 299.423 410.429C297.148 410.439 294.729 410.449 292.156 410.46C289.939 410.469 287.84 410.478 285.853 410.487C267.679 410.564 258.795 410.601 253.795 410.794C251.06 410.899 249.796 411.043 248.953 411.197C248.261 411.323 247.792 411.458 246.784 411.747C246.478 411.836 246.121 411.938 245.694 412.059C236.115 414.764 228.824 422.206 225.762 433.423C225.73 433.54 225.699 433.654 225.669 433.765C224.951 436.391 224.723 437.227 224.559 439.744C224.363 442.767 224.324 447.664 224.238 458.22L224.008 486.435L203.441 486.505C198.288 486.523 194.673 486.512 192.131 486.458C189.739 486.408 187.848 486.318 186.436 486.061C176.635 484.28 167.323 478.455 160.805 470.387C148.739 455.452 143.373 431.702 144.058 403.704C144.489 386.084 147.137 372.376 152.892 360.435C160.388 344.879 172.034 335.036 187.921 331.808C190.109 331.364 191.472 331.219 198.39 331.146C202.665 331.101 209.261 331.085 219.745 331.083L219.658 309.44C219.657 309.059 219.655 308.686 219.654 308.319C219.617 299.187 219.597 294.15 219.812 291.036C219.931 289.3 220.141 287.806 220.577 286.33C220.961 285.027 221.477 283.926 221.849 283.133C221.879 283.068 221.908 283.006 221.937 282.945ZM269.565 295.748C268.701 290.845 265.333 286.933 260.761 285.522C253.456 283.267 245.833 287.92 244.485 295.458C243.389 301.588 246.936 307.557 252.937 309.676C254.278 310.149 255.14 310.245 257.438 310.177C259.943 310.102 260.512 309.984 262.212 309.186C267.386 306.757 270.502 301.062 269.565 295.748ZM258.666 303.104C258.626 303.109 258.557 303.116 258.452 303.124C258.197 303.145 257.831 303.162 257.231 303.18C256.139 303.212 255.758 303.19 255.603 303.172C255.558 303.167 255.549 303.165 255.542 303.163C255.525 303.159 255.451 303.14 255.268 303.075C252.394 302.06 250.903 299.336 251.376 296.69C251.985 293.28 255.421 291.199 258.697 292.21C260.634 292.808 262.24 294.514 262.671 296.963C263.015 298.913 261.787 301.653 259.237 302.85C258.917 303 258.745 303.072 258.666 303.104ZM258.612 303.124C258.612 303.124 258.617 303.122 258.625 303.12C258.615 303.123 258.611 303.125 258.612 303.124Z" fill="#3E3E3E"/>
<path d="M254.494 76.8104C255.311 51.6444 255.918 49.2504 263.076 42.9654C269.406 37.4074 274.285 39.4894 279.531 49.9884C281.779 54.4864 282.6 57.5254 282.6 61.3454C282.6 67.8664 283.554 72.8104 284.812 72.8104C285.34 72.8104 288.613 70.0834 292.084 66.7504L298.394 60.6914L309.85 72.0414C316.15 78.2834 321.821 84.3554 322.453 85.5354C323.084 86.7144 323.6 91.3084 323.6 95.7444C323.6 100.18 324.018 103.81 324.529 103.81C325.04 103.81 327.065 105.326 329.029 107.178L332.6 110.546L332.615 122.928C332.624 129.738 332.963 135.832 333.368 136.469C333.774 137.107 336.023 138.395 338.366 139.333C343.682 141.46 346.16 144.889 349.033 154.09L350.288 169.721C349.426 170.582 349.1 178.783 349.1 199.595V228.283L355.6 229.39C359.175 229.999 366.375 231.047 371.6 231.718C383.248 233.213 387.6 234.505 387.6 236.464C387.6 238.084 384.142 241.662 378.284 246.103L374.6 248.895V260.056V271.216L370.6 267.31L366.6 263.404V255.384V247.365L370.85 243.689C373.187 241.667 374.771 239.676 374.37 239.265C373.968 238.853 366.589 237.466 357.972 236.182C349.355 234.898 342.203 233.727 342.078 233.579C341.953 233.431 342.209 216.435 342.647 195.81C343.48 156.552 343.141 151.536 339.419 148.122C338.333 147.125 335.117 145.185 332.272 143.81L327.1 141.31L326.6 126.81L326.1 112.31L321.978 110.446L317.856 108.582L317.376 98.6004L316.895 88.6194L307.818 79.5424L298.741 70.4654L295.421 73.0324C293.594 74.4444 289.316 78.2344 285.914 81.4554C279.798 87.2444 279.719 87.3894 278.9 94.3104C278.139 100.735 277.967 99.5384 276.809 79.7564C275.404 55.7634 274.747 52.2374 271.035 48.7494L268.466 46.3364L266.487 48.8234C261.292 55.3494 261.572 53.0274 260.494 98.4524L259.477 141.31L256.641 143.81C255.081 145.185 252.539 148.275 250.992 150.678L248.178 155.046L248.475 195.681L248.773 236.316L240.436 240.491C235.851 242.787 229.625 245.451 226.6 246.411C223.575 247.371 220.853 248.522 220.55 248.968C220.248 249.415 220.372 253.646 220.825 258.371C221.602 266.462 221.517 267.125 219.375 269.752C218.124 271.287 216.564 273.39 215.909 274.426C214.928 275.977 214.677 274.718 214.488 267.31C214.175 255.053 214.205 255.31 212.719 252.532C211.54 250.33 211.686 249.637 214.091 246.003C216.38 242.544 217.551 241.772 221.932 240.832C229.752 239.155 241.534 232.923 242.245 230.087C242.935 227.342 242.381 179.012 241.669 169.079C241.617 169.757 241.545 169.404 241.435 167.311C241.514 167.39 241.592 168.014 241.669 169.079C241.825 167.028 241.799 155.55 242.07 154.31C242.768 151.118 246.263 145.414 250.821 140.025L253.6 136.74L253.682 118.025C253.726 107.732 254.092 89.1854 254.494 76.8104Z" fill="#3E3E3E"/>
<path fill-rule="evenodd" clip-rule="evenodd" d="M241.951 163.529C145.821 189.126 75 276.777 75 380.969C75 445.537 102.197 503.752 145.76 544.784C167.746 539.816 190.686 535.81 214.392 532.864C213.598 531.108 212.909 529.279 212.33 527.375L211.652 525.145C189.816 527.911 168.62 531.568 148.207 536.043C107.96 496.643 83 441.727 83 380.969C83 281.218 150.306 197.187 241.981 171.812C241.966 168.986 241.954 166.112 241.951 163.529ZM349.082 169.543C445.287 191.788 517 278.004 517 380.969C517 439.827 493.578 493.199 455.527 532.298C431.872 527.778 407.264 524.338 381.912 522.085C381.909 522.259 381.907 522.426 381.904 522.587L381.902 522.701C381.889 523.5 381.863 525.05 381.726 526.19C381.572 527.477 381.327 528.765 381.007 530.036C407.662 532.398 433.474 536.085 458.196 540.966C499.443 500.18 525 443.559 525 380.969C525 273.554 449.729 183.719 349.056 161.333L349.082 169.543Z" fill="#3E3E3E"/>
<path d="M668.2 154.9C677.4 154.9 685.2 157.233 691.6 161.9C698.133 166.433 703 172.567 706.2 180.3C709.533 188.033 711.2 196.633 711.2 206.1C711.2 216.367 709.267 225.433 705.4 233.3C701.533 241.167 695.933 247.367 688.6 251.9C681.267 256.3 672.533 258.5 662.4 258.5C659.067 258.5 651.133 257.633 638.6 255.9V308.5H627.2V186.1C627.2 175.567 624.4 167.833 618.8 162.9L626.8 154.9C629.067 156.5 631.267 158.7 633.4 161.5C635.533 164.3 637.067 167.367 638 170.7C643.733 160.167 653.8 154.9 668.2 154.9ZM661.4 247.7C673.933 247.7 683.333 244.1 689.6 236.9C696 229.567 699.2 219.633 699.2 207.1C699.2 195.233 696.467 185.367 691 177.5C685.667 169.633 678.2 165.7 668.6 165.7C661 165.7 654.2 168.033 648.2 172.7C642.333 177.367 639.133 183.433 638.6 190.9V245.9C650.867 247.1 658.467 247.7 661.4 247.7ZM811.808 156.5L811.608 228.9V279.3C811.608 289.567 808.874 297.767 803.408 303.9C797.941 310.167 790.674 313.3 781.608 313.3C776.008 313.3 770.874 311.9 766.208 309.1C761.674 306.433 758.074 302.7 755.408 297.9C752.874 293.1 751.608 287.7 751.608 281.7C751.608 276.233 752.608 271.367 754.608 267.1C756.741 262.833 759.608 259.767 763.208 257.9C754.274 257.233 747.141 254.3 741.808 249.1C736.474 243.767 733.808 236.967 733.808 228.7V185.3C733.808 174.767 731.008 167.033 725.408 162.1L733.408 154.1C736.474 156.1 739.274 159.167 741.808 163.3C744.341 167.433 745.674 171.9 745.808 176.7V223.5C745.808 231.367 747.541 237.233 751.008 241.1C754.608 244.967 760.008 246.9 767.208 246.9C773.074 246.9 778.274 245.633 782.808 243.1C787.474 240.567 792.141 236.433 796.808 230.7C797.874 229.233 798.608 227.967 799.008 226.9C799.408 225.7 799.608 224.1 799.608 222.1L799.808 156.5H811.808ZM800.008 240.9C798.274 243.7 796.674 245.9 795.208 247.5C793.741 248.967 792.008 250.5 790.008 252.1C786.408 254.633 782.408 257.1 778.008 259.5C772.674 262.3 768.874 265.367 766.608 268.7C764.341 272.033 763.208 276.233 763.208 281.3C763.208 287.567 764.808 292.5 768.008 296.1C771.341 299.833 775.808 301.7 781.408 301.7C786.874 301.7 791.208 299.767 794.408 295.9C797.741 292.033 799.474 286.767 799.608 280.1L800.008 240.9ZM868.378 258.5C859.311 258.5 852.645 255.967 848.378 250.9C844.111 245.7 841.978 237.967 841.978 227.7V131.5H853.978V156.9H885.378V167.7H853.978V227.7C853.978 241.033 858.778 247.7 868.378 247.7C875.978 247.7 881.845 243.633 885.978 235.5L894.978 241.7C891.911 247.3 888.245 251.5 883.978 254.3C879.711 257.1 874.511 258.5 868.378 258.5ZM992.667 239.7C992.667 241.567 993.267 243.167 994.467 244.5C995.801 245.7 997.334 246.3 999.067 246.3C1001.73 246.3 1003.67 245.167 1004.87 242.9L1013.67 249.5C1012.6 251.767 1010.73 253.7 1008.07 255.3C1005.4 256.767 1002.4 257.5 999.067 257.5C993.734 257.5 989.334 255.833 985.867 252.5C982.401 249.167 980.667 244.833 980.667 239.5V187.1C980.667 179.767 978.734 174.233 974.867 170.5C971.134 166.633 965.601 164.7 958.267 164.7C951.867 164.7 946.267 166.433 941.467 169.9C936.801 173.233 931.934 178.3 926.867 185.1V255.9H914.867V110.7H926.867V171.1C935.267 159.633 946.201 153.9 959.667 153.9C970.601 153.9 978.801 156.7 984.267 162.3C989.867 167.9 992.667 175.967 992.667 186.5V239.7ZM1070.34 258.5C1060.88 258.5 1052.41 256.3 1044.94 251.9C1037.61 247.5 1031.88 241.367 1027.74 233.5C1023.61 225.633 1021.54 216.7 1021.54 206.7C1021.54 196.7 1023.61 187.767 1027.74 179.9C1032.01 171.9 1037.81 165.7 1045.14 161.3C1052.61 156.767 1061.08 154.5 1070.54 154.5C1079.88 154.5 1088.21 156.767 1095.54 161.3C1103.01 165.7 1108.81 171.833 1112.94 179.7C1117.21 187.567 1119.34 196.5 1119.34 206.5C1119.34 216.5 1117.21 225.433 1112.94 233.3C1108.81 241.167 1103.01 247.367 1095.54 251.9C1088.21 256.3 1079.81 258.5 1070.34 258.5ZM1070.54 247.7C1081.61 247.7 1090.48 243.9 1097.14 236.3C1103.94 228.7 1107.34 218.767 1107.34 206.5C1107.34 198.367 1105.81 191.233 1102.74 185.1C1099.68 178.833 1095.34 173.967 1089.74 170.5C1084.14 167.033 1077.74 165.3 1070.54 165.3C1063.21 165.3 1056.74 167.033 1051.14 170.5C1045.54 173.967 1041.21 178.9 1038.14 185.3C1035.08 191.567 1033.54 198.7 1033.54 206.7C1033.54 214.7 1035.08 221.833 1038.14 228.1C1041.21 234.233 1045.54 239.033 1051.14 242.5C1056.74 245.967 1063.21 247.7 1070.54 247.7ZM1242.4 249.5C1241.33 251.767 1239.47 253.7 1236.8 255.3C1234.13 256.767 1231.13 257.5 1227.8 257.5C1222.47 257.5 1218.07 255.833 1214.6 252.5C1211.13 249.167 1209.4 244.833 1209.4 239.5V189.3C1209.4 173.3 1202.2 165.3 1187.8 165.3C1181 165.3 1175.2 167.033 1170.4 170.5C1165.6 173.833 1160.67 178.9 1155.6 185.7V256.5H1143.6V186.3C1143.6 175.767 1140.8 168.033 1135.2 163.1L1143.2 155.1C1145.6 156.567 1147.87 158.833 1150 161.9C1152.27 164.967 1153.87 168.3 1154.8 171.9C1159.33 165.767 1164.33 161.367 1169.8 158.7C1175.4 155.9 1181.73 154.5 1188.8 154.5C1198.53 154.5 1206.27 157.033 1212 162.1C1217.73 167.033 1220.87 174.367 1221.4 184.1V239.7C1221.4 241.567 1222 243.167 1223.2 244.5C1224.53 245.7 1226.07 246.3 1227.8 246.3C1230.47 246.3 1232.4 245.167 1233.6 242.9L1242.4 249.5ZM689 513.1C676.2 513.1 664.6 509.9 654.2 503.5C643.933 496.967 635.867 488.233 630 477.3C624.133 466.233 621.2 454.233 621.2 441.3C621.2 427.967 624.267 415.567 630.4 404.1C636.533 392.5 644.867 383.3 655.4 376.5C665.933 369.7 677.533 366.3 690.2 366.3C698.067 366.3 705.6 367.5 712.8 369.9C720.133 372.167 726.067 375.567 730.6 380.1C735.267 384.633 737.6 390.1 737.6 396.5C737.6 401.7 735.733 406.167 732 409.9C728.4 413.5 724.067 415.3 719 415.3C715 415.3 711.2 413.967 707.6 411.3L714.6 402.5C716.333 403.567 717.867 404.1 719.2 404.1C720.933 404.1 722.4 403.367 723.6 401.9C724.8 400.433 725.4 398.567 725.4 396.3C725.4 392.433 723.533 389.1 719.8 386.3C716.2 383.5 711.667 381.367 706.2 379.9C700.733 378.433 695.467 377.7 690.4 377.7C679.6 377.7 669.8 380.633 661 386.5C652.333 392.233 645.533 399.967 640.6 409.7C635.667 419.433 633.2 429.967 633.2 441.3C633.2 452.233 635.533 462.367 640.2 471.7C645 480.9 651.6 488.233 660 493.7C668.533 499.033 678.267 501.7 689.2 501.7C698.8 501.7 707.733 499.567 716 495.3C724.4 490.9 731.2 484.9 736.4 477.3L745.6 483.7C739.067 493.3 730.8 500.633 720.8 505.7C710.8 510.633 700.2 513.1 689 513.1ZM809.016 510.5C799.549 510.5 791.082 508.3 783.616 503.9C776.282 499.5 770.549 493.367 766.416 485.5C762.282 477.633 760.216 468.7 760.216 458.7C760.216 448.7 762.282 439.767 766.416 431.9C770.682 423.9 776.482 417.7 783.816 413.3C791.282 408.767 799.749 406.5 809.216 406.5C818.549 406.5 826.882 408.767 834.216 413.3C841.682 417.7 847.482 423.833 851.616 431.7C855.882 439.567 858.016 448.5 858.016 458.5C858.016 468.5 855.882 477.433 851.616 485.3C847.482 493.167 841.682 499.367 834.216 503.9C826.882 508.3 818.482 510.5 809.016 510.5ZM809.216 499.7C820.282 499.7 829.149 495.9 835.816 488.3C842.616 480.7 846.016 470.767 846.016 458.5C846.016 450.367 844.482 443.233 841.416 437.1C838.349 430.833 834.016 425.967 828.416 422.5C822.816 419.033 816.416 417.3 809.216 417.3C801.882 417.3 795.416 419.033 789.816 422.5C784.216 425.967 779.882 430.9 776.816 437.3C773.749 443.567 772.216 450.7 772.216 458.7C772.216 466.7 773.749 473.833 776.816 480.1C779.882 486.233 784.216 491.033 789.816 494.5C795.416 497.967 801.882 499.7 809.216 499.7ZM921.873 406.5C925.873 406.5 929.873 407.1 933.873 408.3V419.5C930.007 418.567 926.14 418.1 922.273 418.1C915.473 418.1 909.94 419.767 905.673 423.1C901.407 426.433 897.607 431.167 894.273 437.3V508.5H882.273V438.5C882.273 427.967 879.473 420.233 873.873 415.3L881.873 407.3C884.273 408.767 886.54 410.967 888.673 413.9C890.807 416.833 892.34 420.1 893.273 423.7C897.007 417.567 900.74 413.367 904.473 411.1C909.14 408.033 914.94 406.5 921.873 406.5ZM1053.71 502.9C1051.71 505.7 1049.44 507.633 1046.91 508.7C1044.51 509.9 1041.71 510.5 1038.51 510.5C1033.84 510.5 1029.71 508.9 1026.11 505.7C1022.64 502.5 1020.91 498.633 1020.91 494.1C1011.71 504.767 1000.58 510.1 987.511 510.1C977.511 510.1 969.711 507.7 964.111 502.9C958.511 497.967 955.444 490.567 954.911 480.7V437.9C954.911 427.367 952.111 419.633 946.511 414.7L954.511 406.7C957.711 408.7 960.578 411.833 963.111 416.1C965.644 420.367 966.911 424.967 966.911 429.9V475.5C966.911 483.1 968.578 488.967 971.911 493.1C975.378 497.233 980.978 499.3 988.711 499.3C996.044 499.3 1002.31 497.7 1007.51 494.5C1012.84 491.3 1017.24 486.233 1020.71 479.3L1020.91 408.5H1032.91L1032.71 491.3C1032.71 493.967 1033.31 496.033 1034.51 497.5C1035.84 498.833 1037.44 499.5 1039.31 499.5C1041.71 499.5 1043.64 498.367 1045.11 496.1L1053.71 502.9ZM1170.14 501.5C1169.07 503.767 1167.2 505.7 1164.54 507.3C1161.87 508.767 1158.87 509.5 1155.54 509.5C1150.2 509.5 1145.8 507.833 1142.34 504.5C1138.87 501.167 1137.14 496.833 1137.14 491.5V441.3C1137.14 425.3 1129.94 417.3 1115.54 417.3C1108.74 417.3 1102.94 419.033 1098.14 422.5C1093.34 425.833 1088.4 430.9 1083.34 437.7V508.5H1071.34V438.3C1071.34 427.767 1068.54 420.033 1062.94 415.1L1070.94 407.1C1073.34 408.567 1075.6 410.833 1077.74 413.9C1080 416.967 1081.6 420.3 1082.54 423.9C1087.07 417.767 1092.07 413.367 1097.54 410.7C1103.14 407.9 1109.47 406.5 1116.54 406.5C1126.27 406.5 1134 409.033 1139.74 414.1C1145.47 419.033 1148.6 426.367 1149.14 436.1V491.7C1149.14 493.567 1149.74 495.167 1150.94 496.5C1152.27 497.7 1153.8 498.3 1155.54 498.3C1158.2 498.3 1160.14 497.167 1161.34 494.9L1170.14 501.5ZM1082.34 386.9C1086.47 383.433 1090.2 381.1 1093.54 379.9C1097 378.567 1100.4 377.9 1103.74 377.9C1106.27 377.9 1108.47 378.233 1110.34 378.9C1112.2 379.567 1114.34 380.567 1116.74 381.9C1120.2 383.9 1123.2 384.9 1125.74 384.9C1130.14 384.9 1135 382.7 1140.34 378.3L1147.14 386.5C1143.14 389.7 1139.74 391.967 1136.94 393.3C1134.14 394.5 1130.27 395.1 1125.34 395.1C1122.94 395.1 1120.94 394.833 1119.34 394.3C1117.87 393.767 1116.14 392.9 1114.14 391.7C1112.27 390.633 1110.6 389.833 1109.14 389.3C1107.8 388.767 1106.07 388.5 1103.94 388.5C1101.54 388.5 1099.2 388.967 1096.94 389.9C1094.8 390.7 1092.14 392.433 1088.94 395.1L1082.34 386.9ZM1220.79 510.5C1211.59 510.5 1203.72 508.167 1197.19 503.5C1190.66 498.833 1185.72 492.633 1182.39 484.9C1179.06 477.167 1177.39 468.633 1177.39 459.3C1177.39 449.033 1179.39 439.967 1183.39 432.1C1187.39 424.1 1193.12 417.9 1200.59 413.5C1208.06 409.1 1216.79 406.9 1226.79 406.9C1229.86 406.9 1233.72 407.1 1238.39 407.5C1243.06 407.767 1247.19 408.167 1250.79 408.7H1262.79V491.3C1262.79 493.967 1263.39 496.033 1264.59 497.5C1265.92 498.833 1267.52 499.5 1269.39 499.5C1271.79 499.5 1273.72 498.367 1275.19 496.1L1283.79 502.9C1281.79 505.7 1279.52 507.633 1276.99 508.7C1274.59 509.9 1271.79 510.5 1268.59 510.5C1263.92 510.5 1259.79 508.9 1256.19 505.7C1252.72 502.5 1250.99 498.633 1250.99 494.1C1247.79 499.433 1243.59 503.5 1238.39 506.3C1233.19 509.1 1227.32 510.5 1220.79 510.5ZM1220.99 499.7C1226.99 499.7 1232.39 498.233 1237.19 495.3C1241.99 492.367 1245.59 488.5 1247.99 483.7C1249.86 479.833 1250.79 475.567 1250.79 470.9V418.5L1237.59 418.1L1225.99 417.7C1213.86 417.7 1204.72 421.5 1198.59 429.1C1192.46 436.7 1189.39 446.633 1189.39 458.9C1189.39 470.233 1192.06 479.9 1197.39 487.9C1202.86 495.767 1210.72 499.7 1220.99 499.7Z" fill="#3E3E3E"/>
<path d="M691.6 161.9L691.011 162.708L691.02 162.715L691.03 162.722L691.6 161.9ZM706.2 180.3L705.276 180.682L705.279 180.689L705.282 180.696L706.2 180.3ZM705.4 233.3L706.297 233.741L706.297 233.741L705.4 233.3ZM688.6 251.9L689.115 252.758L689.126 252.751L688.6 251.9ZM638.6 255.9L638.737 254.909L637.6 254.752V255.9H638.6ZM638.6 308.5V309.5H639.6V308.5H638.6ZM627.2 308.5H626.2V309.5H627.2V308.5ZM618.8 162.9L618.093 162.193L617.34 162.946L618.139 163.65L618.8 162.9ZM626.8 154.9L627.377 154.083L626.689 153.597L626.093 154.193L626.8 154.9ZM633.4 161.5L634.195 160.894L634.195 160.894L633.4 161.5ZM638 170.7L637.037 170.97L637.701 173.341L638.878 171.178L638 170.7ZM689.6 236.9L688.847 236.242L688.846 236.243L689.6 236.9ZM691 177.5L690.172 178.061L690.179 178.071L691 177.5ZM648.2 172.7L647.586 171.911L647.577 171.917L648.2 172.7ZM638.6 190.9L637.603 190.829L637.6 190.864V190.9H638.6ZM638.6 245.9H637.6V246.807L638.503 246.895L638.6 245.9ZM668.2 155.9C677.224 155.9 684.808 158.185 691.011 162.708L692.189 161.092C685.592 156.281 677.576 153.9 668.2 153.9V155.9ZM691.03 162.722C697.397 167.14 702.145 173.117 705.276 180.682L707.124 179.918C703.855 172.017 698.87 165.727 692.17 161.078L691.03 162.722ZM705.282 180.696C708.555 188.29 710.2 196.753 710.2 206.1H712.2C712.2 196.514 710.512 187.777 707.118 179.904L705.282 180.696ZM710.2 206.1C710.2 216.24 708.291 225.151 704.503 232.859L706.297 233.741C710.242 225.716 712.2 216.494 712.2 206.1H710.2ZM704.503 232.859C700.717 240.56 695.245 246.617 688.074 251.049L689.126 252.751C696.622 248.117 702.349 241.774 706.297 233.741L704.503 232.859ZM688.086 251.043C680.934 255.333 672.386 257.5 662.4 257.5V259.5C672.681 259.5 681.599 257.267 689.114 252.757L688.086 251.043ZM662.4 257.5C659.15 257.5 651.293 256.646 638.737 254.909L638.463 256.891C650.973 258.621 658.983 259.5 662.4 259.5V257.5ZM637.6 255.9V308.5H639.6V255.9H637.6ZM638.6 307.5H627.2V309.5H638.6V307.5ZM628.2 308.5V186.1H626.2V308.5H628.2ZM628.2 186.1C628.2 175.401 625.354 167.341 619.461 162.15L618.139 163.65C623.446 168.326 626.2 175.732 626.2 186.1H628.2ZM619.507 163.607L627.507 155.607L626.093 154.193L618.093 162.193L619.507 163.607ZM626.223 155.717C628.388 157.245 630.517 159.366 632.605 162.106L634.195 160.894C632.016 158.034 629.745 155.755 627.377 154.083L626.223 155.717ZM632.605 162.106C634.663 164.807 636.138 167.76 637.037 170.97L638.963 170.43C637.995 166.973 636.404 163.793 634.195 160.894L632.605 162.106ZM638.878 171.178C644.398 161.037 654.078 155.9 668.2 155.9V153.9C653.522 153.9 643.068 159.297 637.122 170.222L638.878 171.178ZM661.4 248.7C674.126 248.7 683.843 245.038 690.354 237.557L688.846 236.243C682.824 243.162 673.74 246.7 661.4 246.7V248.7ZM690.353 237.558C696.954 229.995 700.2 219.804 700.2 207.1H698.2C698.2 219.463 695.046 229.139 688.847 236.242L690.353 237.558ZM700.2 207.1C700.2 195.078 697.429 185 691.821 176.929L690.179 178.071C695.504 185.734 698.2 195.388 698.2 207.1H700.2ZM691.828 176.939C686.306 168.794 678.528 164.7 668.6 164.7V166.7C677.872 166.7 685.027 170.472 690.172 178.061L691.828 176.939ZM668.6 164.7C660.778 164.7 653.762 167.107 647.586 171.911L648.814 173.489C654.638 168.959 661.222 166.7 668.6 166.7V164.7ZM647.577 171.917C641.492 176.758 638.156 183.082 637.603 190.829L639.597 190.971C640.111 183.784 643.175 177.975 648.823 173.483L647.577 171.917ZM637.6 190.9V245.9H639.6V190.9H637.6ZM638.503 246.895C650.75 248.093 658.406 248.7 661.4 248.7V246.7C658.527 246.7 650.984 246.107 638.697 244.905L638.503 246.895ZM811.808 156.5L812.808 156.503L812.811 155.5H811.808V156.5ZM811.608 228.9L810.608 228.897V228.9H811.608ZM803.408 303.9L802.661 303.235L802.654 303.243L803.408 303.9ZM766.208 309.1L766.722 308.242L766.715 308.238L766.208 309.1ZM755.408 297.9L754.523 298.367L754.528 298.376L754.534 298.386L755.408 297.9ZM754.608 267.1L753.713 266.653L753.708 266.664L753.702 266.676L754.608 267.1ZM763.208 257.9L763.668 258.788L766.798 257.165L763.282 256.903L763.208 257.9ZM741.808 249.1L741.101 249.807L741.11 249.816L741.808 249.1ZM725.408 162.1L724.701 161.393L723.947 162.146L724.747 162.85L725.408 162.1ZM733.408 154.1L733.954 153.262L733.274 152.819L732.701 153.393L733.408 154.1ZM741.808 163.3L740.955 163.823L740.955 163.823L741.808 163.3ZM745.808 176.7H746.808V176.686L746.807 176.672L745.808 176.7ZM751.008 241.1L750.263 241.768L750.27 241.775L750.276 241.781L751.008 241.1ZM782.808 243.1L782.331 242.221L782.32 242.227L782.808 243.1ZM796.808 230.7L797.583 231.331L797.601 231.31L797.617 231.288L796.808 230.7ZM799.008 226.9L799.944 227.251L799.951 227.234L799.957 227.216L799.008 226.9ZM799.608 222.1L798.608 222.097V222.1H799.608ZM799.808 156.5V155.5H798.811L798.808 156.497L799.808 156.5ZM800.008 240.9L801.008 240.91L801.044 237.326L799.158 240.374L800.008 240.9ZM795.208 247.5L795.915 248.207L795.93 248.192L795.945 248.176L795.208 247.5ZM790.008 252.1L790.583 252.918L790.608 252.9L790.633 252.881L790.008 252.1ZM778.008 259.5L778.473 260.385L778.48 260.382L778.487 260.378L778.008 259.5ZM766.608 268.7L767.435 269.262L767.435 269.262L766.608 268.7ZM768.008 296.1L767.26 296.764L767.262 296.766L768.008 296.1ZM794.408 295.9L793.65 295.247L793.644 295.255L793.637 295.262L794.408 295.9ZM799.608 280.1L800.608 280.12L800.608 280.11L799.608 280.1ZM810.808 156.497L810.608 228.897L812.608 228.903L812.808 156.503L810.808 156.497ZM810.608 228.9V279.3H812.608V228.9H810.608ZM810.608 279.3C810.608 289.385 807.927 297.327 802.661 303.235L804.154 304.565C809.822 298.206 812.608 289.748 812.608 279.3H810.608ZM802.654 303.243C797.396 309.27 790.415 312.3 781.608 312.3V314.3C790.934 314.3 798.486 311.063 804.161 304.557L802.654 303.243ZM781.608 312.3C776.184 312.3 771.229 310.946 766.722 308.243L765.693 309.957C770.52 312.854 775.832 314.3 781.608 314.3V312.3ZM766.715 308.238C762.342 305.666 758.866 302.066 756.282 297.414L754.534 298.386C757.283 303.334 761.007 307.201 765.701 309.962L766.715 308.238ZM756.292 297.433C753.843 292.792 752.608 287.555 752.608 281.7H750.608C750.608 287.845 751.906 293.408 754.523 298.367L756.292 297.433ZM752.608 281.7C752.608 276.357 753.585 271.639 755.513 267.524L753.702 266.676C751.631 271.095 750.608 276.11 750.608 281.7H752.608ZM755.502 267.547C757.558 263.435 760.287 260.541 763.668 258.788L762.747 257.012C758.928 258.993 755.924 262.231 753.713 266.653L755.502 267.547ZM763.282 256.903C754.534 256.25 747.638 253.388 742.506 248.384L741.11 249.816C746.644 255.212 754.015 258.217 763.133 258.897L763.282 256.903ZM742.515 248.393C737.388 243.266 734.808 236.729 734.808 228.7H732.808C732.808 237.204 735.561 244.267 741.101 249.807L742.515 248.393ZM734.808 228.7V185.3H732.808V228.7H734.808ZM734.808 185.3C734.808 174.601 731.962 166.541 726.069 161.35L724.747 162.85C730.054 167.526 732.808 174.932 732.808 185.3H734.808ZM726.115 162.807L734.115 154.807L732.701 153.393L724.701 161.393L726.115 162.807ZM732.862 154.938C735.771 156.835 738.475 159.777 740.955 163.823L742.66 162.777C740.074 158.557 737.178 155.365 733.954 153.262L732.862 154.938ZM740.955 163.823C743.398 167.808 744.68 172.104 744.808 176.728L746.807 176.672C746.669 171.696 745.284 167.058 742.66 162.777L740.955 163.823ZM744.808 176.7V223.5H746.808V176.7H744.808ZM744.808 223.5C744.808 231.49 746.565 237.643 750.263 241.768L751.752 240.432C748.517 236.824 746.808 231.243 746.808 223.5H744.808ZM750.276 241.781C754.126 245.917 759.835 247.9 767.208 247.9V245.9C760.181 245.9 755.09 244.017 751.74 240.419L750.276 241.781ZM767.208 247.9C773.223 247.9 778.595 246.6 783.296 243.973L782.32 242.227C777.954 244.667 772.926 245.9 767.208 245.9V247.9ZM783.285 243.979C788.102 241.364 792.864 237.129 797.583 231.331L796.032 230.069C791.418 235.738 786.847 239.769 782.331 242.221L783.285 243.979ZM797.617 231.288C798.709 229.786 799.5 228.437 799.944 227.251L798.071 226.549C797.716 227.497 797.04 228.68 795.999 230.112L797.617 231.288ZM799.957 227.216C800.404 225.873 800.608 224.153 800.608 222.1H798.608C798.608 224.047 798.411 225.527 798.059 226.584L799.957 227.216ZM800.608 222.103L800.808 156.503L798.808 156.497L798.608 222.097L800.608 222.103ZM799.808 157.5H811.808V155.5H799.808V157.5ZM799.158 240.374C797.442 243.145 795.879 245.288 794.471 246.824L795.945 248.176C797.47 246.512 799.107 244.255 800.858 241.426L799.158 240.374ZM794.501 246.793C793.065 248.228 791.361 249.737 789.383 251.319L790.633 252.881C792.655 251.263 794.417 249.705 795.915 248.207L794.501 246.793ZM789.432 251.282C785.867 253.791 781.9 256.238 777.529 258.622L778.487 260.378C782.916 257.962 786.948 255.476 790.583 252.918L789.432 251.282ZM777.543 258.615C772.13 261.456 768.174 264.618 765.781 268.138L767.435 269.262C769.575 266.115 773.218 263.144 778.473 260.385L777.543 258.615ZM765.781 268.138C763.376 271.675 762.208 276.084 762.208 281.3H764.208C764.208 276.382 765.307 272.392 767.435 269.262L765.781 268.138ZM762.208 281.3C762.208 287.736 763.854 292.932 767.26 296.764L768.755 295.436C765.762 292.068 764.208 287.397 764.208 281.3H762.208ZM767.262 296.766C770.809 300.738 775.561 302.7 781.408 302.7V300.7C776.055 300.7 771.874 298.928 768.754 295.434L767.262 296.766ZM781.408 302.7C787.142 302.7 791.77 300.656 795.178 296.538L793.637 295.262C790.646 298.877 786.607 300.7 781.408 300.7V302.7ZM795.165 296.553C798.692 292.462 800.471 286.947 800.608 280.12L798.608 280.08C798.478 286.586 796.79 291.605 793.65 295.247L795.165 296.553ZM800.608 280.11L801.008 240.91L799.008 240.89L798.608 280.09L800.608 280.11ZM848.378 250.9L847.605 251.534L847.613 251.544L848.378 250.9ZM841.978 131.5V130.5H840.978V131.5H841.978ZM853.978 131.5H854.978V130.5H853.978V131.5ZM853.978 156.9H852.978V157.9H853.978V156.9ZM885.378 156.9H886.378V155.9H885.378V156.9ZM885.378 167.7V168.7H886.378V167.7H885.378ZM853.978 167.7V166.7H852.978V167.7H853.978ZM885.978 235.5L886.545 234.676L885.604 234.028L885.087 235.047L885.978 235.5ZM894.978 241.7L895.855 242.18L896.289 241.389L895.545 240.876L894.978 241.7ZM883.978 254.3L883.429 253.464L883.978 254.3ZM868.378 257.5C859.492 257.5 853.157 255.022 849.143 250.256L847.613 251.544C852.133 256.911 859.131 259.5 868.378 259.5V257.5ZM849.151 250.266C845.091 245.317 842.978 237.852 842.978 227.7H840.978C840.978 238.082 843.132 246.083 847.605 251.534L849.151 250.266ZM842.978 227.7V131.5H840.978V227.7H842.978ZM841.978 132.5H853.978V130.5H841.978V132.5ZM852.978 131.5V156.9H854.978V131.5H852.978ZM853.978 157.9H885.378V155.9H853.978V157.9ZM884.378 156.9V167.7H886.378V156.9H884.378ZM885.378 166.7H853.978V168.7H885.378V166.7ZM852.978 167.7V227.7H854.978V167.7H852.978ZM852.978 227.7C852.978 234.457 854.189 239.704 856.767 243.284C859.388 246.925 863.318 248.7 868.378 248.7V246.7C863.838 246.7 860.568 245.142 858.39 242.116C856.167 239.029 854.978 234.277 854.978 227.7H852.978ZM868.378 248.7C872.368 248.7 875.936 247.629 879.048 245.472C882.15 243.321 884.748 240.127 886.87 235.953L885.087 235.047C883.075 239.006 880.673 241.912 877.908 243.828C875.154 245.738 871.988 246.7 868.378 246.7V248.7ZM885.411 236.324L894.411 242.524L895.545 240.876L886.545 234.676L885.411 236.324ZM894.101 241.22C891.094 246.711 887.529 250.774 883.429 253.464L884.527 255.136C888.961 252.226 892.729 247.889 895.855 242.18L894.101 241.22ZM883.429 253.464C879.356 256.137 874.356 257.5 868.378 257.5V259.5C874.667 259.5 880.067 258.063 884.527 255.136L883.429 253.464ZM994.467 244.5L993.724 245.169L993.759 245.208L993.798 245.243L994.467 244.5ZM1004.87 242.9L1005.47 242.1L1004.53 241.398L1003.98 242.432L1004.87 242.9ZM1013.67 249.5L1014.57 249.926L1014.92 249.189L1014.27 248.7L1013.67 249.5ZM1008.07 255.3L1008.55 256.176L1008.57 256.167L1008.58 256.157L1008.07 255.3ZM985.867 252.5L986.56 251.779L986.56 251.779L985.867 252.5ZM974.867 170.5L974.148 171.195L974.16 171.207L974.173 171.219L974.867 170.5ZM941.467 169.9L942.048 170.714L942.053 170.711L941.467 169.9ZM926.867 185.1L926.065 184.503L925.867 184.768V185.1H926.867ZM926.867 255.9V256.9H927.867V255.9H926.867ZM914.867 255.9H913.867V256.9H914.867V255.9ZM914.867 110.7V109.7H913.867V110.7H914.867ZM926.867 110.7H927.867V109.7H926.867V110.7ZM926.867 171.1H925.867V174.157L927.674 171.691L926.867 171.1ZM984.267 162.3L983.552 162.999L983.56 163.007L984.267 162.3ZM991.667 239.7C991.667 241.803 992.351 243.644 993.724 245.169L995.21 243.831C994.183 242.689 993.667 241.331 993.667 239.7H991.667ZM993.798 245.243C995.308 246.602 997.078 247.3 999.067 247.3V245.3C997.59 245.3 996.293 244.798 995.136 243.757L993.798 245.243ZM999.067 247.3C1000.54 247.3 1001.88 246.985 1003.02 246.313C1004.17 245.639 1005.08 244.641 1005.75 243.368L1003.98 242.432C1003.46 243.426 1002.8 244.128 1002.01 244.587C1001.23 245.048 1000.26 245.3 999.067 245.3V247.3ZM1004.27 243.7L1013.07 250.3L1014.27 248.7L1005.47 242.1L1004.27 243.7ZM1012.76 249.074C1011.8 251.122 1010.09 252.92 1007.55 254.443L1008.58 256.157C1011.38 254.48 1013.4 252.411 1014.57 249.926L1012.76 249.074ZM1007.59 254.424C1005.08 255.802 1002.25 256.5 999.067 256.5V258.5C1002.55 258.5 1005.72 257.732 1008.55 256.176L1007.59 254.424ZM999.067 256.5C993.962 256.5 989.82 254.913 986.56 251.779L985.174 253.221C988.848 256.753 993.506 258.5 999.067 258.5V256.5ZM986.56 251.779C983.312 248.656 981.667 244.594 981.667 239.5H979.667C979.667 245.073 981.489 249.677 985.174 253.221L986.56 251.779ZM981.667 239.5V187.1H979.667V239.5H981.667ZM981.667 187.1C981.667 179.597 979.686 173.763 975.562 169.781L974.173 171.219C977.781 174.704 979.667 179.936 979.667 187.1H981.667ZM975.587 169.805C971.604 165.681 965.77 163.7 958.267 163.7V165.7C965.431 165.7 970.664 167.586 974.148 171.195L975.587 169.805ZM958.267 163.7C951.675 163.7 945.866 165.489 940.882 169.089L942.053 170.711C946.668 167.377 952.059 165.7 958.267 165.7V163.7ZM940.886 169.086C936.105 172.501 931.167 177.655 926.065 184.503L927.669 185.697C932.701 178.945 937.496 173.965 942.048 170.714L940.886 169.086ZM925.867 185.1V255.9H927.867V185.1H925.867ZM926.867 254.9H914.867V256.9H926.867V254.9ZM915.867 255.9V110.7H913.867V255.9H915.867ZM914.867 111.7H926.867V109.7H914.867V111.7ZM925.867 110.7V171.1H927.867V110.7H925.867ZM927.674 171.691C935.898 160.465 946.539 154.9 959.667 154.9V152.9C945.862 152.9 934.637 158.802 926.06 170.509L927.674 171.691ZM959.667 154.9C970.44 154.9 978.338 157.657 983.552 162.999L984.983 161.601C979.263 155.743 970.761 152.9 959.667 152.9V154.9ZM983.56 163.007C988.917 168.364 991.667 176.141 991.667 186.5H993.667C993.667 175.792 990.817 167.436 984.974 161.593L983.56 163.007ZM991.667 186.5V239.7H993.667V186.5H991.667ZM1044.94 251.9L1044.43 252.758L1044.44 252.762L1044.94 251.9ZM1027.74 233.5L1028.63 233.035L1028.63 233.035L1027.74 233.5ZM1027.74 179.9L1026.86 179.429L1026.86 179.435L1027.74 179.9ZM1045.14 161.3L1045.66 162.158L1045.66 162.155L1045.14 161.3ZM1095.54 161.3L1095.02 162.151L1095.03 162.156L1095.04 162.162L1095.54 161.3ZM1112.94 179.7L1112.06 180.165L1112.06 180.177L1112.94 179.7ZM1112.94 233.3L1112.06 232.823L1112.06 232.835L1112.94 233.3ZM1095.54 251.9L1096.06 252.758L1096.06 252.755L1095.54 251.9ZM1097.14 236.3L1096.4 235.633L1096.39 235.641L1097.14 236.3ZM1102.74 185.1L1101.85 185.54L1101.85 185.547L1102.74 185.1ZM1089.74 170.5L1089.22 171.35L1089.22 171.35L1089.74 170.5ZM1051.14 170.5L1051.67 171.35L1051.67 171.35L1051.14 170.5ZM1038.14 185.3L1039.04 185.74L1039.05 185.732L1038.14 185.3ZM1038.14 228.1L1037.25 228.54L1037.25 228.547L1038.14 228.1ZM1051.14 242.5L1050.62 243.35L1050.62 243.35L1051.14 242.5ZM1070.34 257.5C1061.04 257.5 1052.75 255.34 1045.45 251.038L1044.44 252.762C1052.07 257.26 1060.72 259.5 1070.34 259.5V257.5ZM1045.46 251.043C1038.29 246.741 1032.68 240.746 1028.63 233.035L1026.86 233.965C1031.07 241.987 1036.93 248.259 1044.43 252.757L1045.46 251.043ZM1028.63 233.035C1024.58 225.329 1022.54 216.559 1022.54 206.7H1020.54C1020.54 216.841 1022.64 225.938 1026.86 233.965L1028.63 233.035ZM1022.54 206.7C1022.54 196.841 1024.58 188.071 1028.63 180.365L1026.86 179.435C1022.64 187.462 1020.54 196.559 1020.54 206.7H1022.54ZM1028.63 180.371C1032.81 172.52 1038.49 166.459 1045.66 162.157L1044.63 160.443C1037.13 164.941 1031.21 171.28 1026.86 179.429L1028.63 180.371ZM1045.66 162.155C1052.96 157.724 1061.24 155.5 1070.54 155.5V153.5C1060.91 153.5 1052.26 155.809 1044.62 160.445L1045.66 162.155ZM1070.54 155.5C1079.71 155.5 1087.86 157.723 1095.02 162.151L1096.07 160.449C1088.57 155.81 1080.05 153.5 1070.54 153.5V155.5ZM1095.04 162.162C1102.34 166.465 1108.01 172.459 1112.06 180.165L1113.83 179.235C1109.61 171.208 1103.68 164.935 1096.05 160.438L1095.04 162.162ZM1112.06 180.177C1116.24 187.881 1118.34 196.647 1118.34 206.5H1120.34C1120.34 196.353 1118.18 187.253 1113.82 179.223L1112.06 180.177ZM1118.34 206.5C1118.34 216.353 1116.24 225.119 1112.06 232.823L1113.82 233.777C1118.18 225.747 1120.34 216.647 1120.34 206.5H1118.34ZM1112.06 232.835C1108.01 240.544 1102.33 246.608 1095.02 251.045L1096.06 252.755C1103.69 248.126 1109.61 241.79 1113.83 233.765L1112.06 232.835ZM1095.03 251.043C1087.87 255.34 1079.65 257.5 1070.34 257.5V259.5C1079.97 259.5 1088.55 257.26 1096.06 252.757L1095.03 251.043ZM1070.54 248.7C1081.87 248.7 1091.02 244.798 1097.9 236.959L1096.39 235.641C1089.93 243.002 1081.35 246.7 1070.54 246.7V248.7ZM1097.89 236.967C1104.88 229.148 1108.34 218.96 1108.34 206.5H1106.34C1106.34 218.573 1103 228.252 1096.4 235.633L1097.89 236.967ZM1108.34 206.5C1108.34 198.24 1106.79 190.949 1103.64 184.653L1101.85 185.547C1104.83 191.518 1106.34 198.493 1106.34 206.5H1108.34ZM1103.64 184.66C1100.5 178.235 1096.04 173.222 1090.27 169.65L1089.22 171.35C1094.65 174.712 1098.86 179.432 1101.85 185.54L1103.64 184.66ZM1090.27 169.65C1084.5 166.076 1077.91 164.3 1070.54 164.3V166.3C1077.58 166.3 1083.79 167.991 1089.22 171.35L1090.27 169.65ZM1070.54 164.3C1063.05 164.3 1056.39 166.074 1050.62 169.65L1051.67 171.35C1057.09 167.992 1063.37 166.3 1070.54 166.3V164.3ZM1050.62 169.65C1044.84 173.225 1040.38 178.309 1037.24 184.868L1039.05 185.732C1042.04 179.491 1046.25 174.708 1051.67 171.35L1050.62 169.65ZM1037.25 184.86C1034.1 191.283 1032.54 198.57 1032.54 206.7H1034.54C1034.54 198.83 1036.05 191.851 1039.04 185.74L1037.25 184.86ZM1032.54 206.7C1032.54 214.83 1034.1 222.117 1037.25 228.54L1039.04 227.66C1036.05 221.549 1034.54 214.57 1034.54 206.7H1032.54ZM1037.25 228.547C1040.4 234.839 1044.85 239.782 1050.62 243.35L1051.67 241.65C1046.23 238.285 1042.03 233.627 1039.04 227.653L1037.25 228.547ZM1050.62 243.35C1056.39 246.926 1063.05 248.7 1070.54 248.7V246.7C1063.37 246.7 1057.09 245.008 1051.67 241.65L1050.62 243.35ZM1242.4 249.5L1243.31 249.926L1243.65 249.189L1243 248.7L1242.4 249.5ZM1236.8 255.3L1237.28 256.176L1237.3 256.167L1237.32 256.157L1236.8 255.3ZM1214.6 252.5L1215.29 251.779L1215.29 251.779L1214.6 252.5ZM1170.4 170.5L1170.97 171.321L1170.98 171.316L1170.99 171.311L1170.4 170.5ZM1155.6 185.7L1154.8 185.103L1154.6 185.368V185.7H1155.6ZM1155.6 256.5V257.5H1156.6V256.5H1155.6ZM1143.6 256.5H1142.6V257.5H1143.6V256.5ZM1135.2 163.1L1134.49 162.393L1133.74 163.146L1134.54 163.85L1135.2 163.1ZM1143.2 155.1L1143.72 154.247L1143.05 153.836L1142.49 154.393L1143.2 155.1ZM1150 161.9L1149.18 162.471L1149.19 162.483L1149.2 162.494L1150 161.9ZM1154.8 171.9L1153.83 172.151L1154.36 174.18L1155.61 172.494L1154.8 171.9ZM1169.8 158.7L1170.24 159.599L1170.25 159.594L1169.8 158.7ZM1212 162.1L1211.34 162.849L1211.35 162.858L1212 162.1ZM1221.4 184.1H1222.4V184.073L1222.4 184.045L1221.4 184.1ZM1223.2 244.5L1222.46 245.169L1222.49 245.208L1222.53 245.243L1223.2 244.5ZM1233.6 242.9L1234.2 242.1L1233.27 241.398L1232.72 242.432L1233.6 242.9ZM1241.5 249.074C1240.53 251.122 1238.82 252.92 1236.29 254.443L1237.32 256.157C1240.11 254.48 1242.14 252.411 1243.31 249.926L1241.5 249.074ZM1236.32 254.424C1233.81 255.802 1230.98 256.5 1227.8 256.5V258.5C1231.29 258.5 1234.46 257.732 1237.28 256.176L1236.32 254.424ZM1227.8 256.5C1222.7 256.5 1218.55 254.913 1215.29 251.779L1213.91 253.221C1217.58 256.753 1222.24 258.5 1227.8 258.5V256.5ZM1215.29 251.779C1212.05 248.656 1210.4 244.594 1210.4 239.5H1208.4C1208.4 245.073 1210.22 249.677 1213.91 253.221L1215.29 251.779ZM1210.4 239.5V189.3H1208.4V239.5H1210.4ZM1210.4 189.3C1210.4 181.17 1208.57 174.886 1204.74 170.631C1200.9 166.356 1195.18 164.3 1187.8 164.3V166.3C1194.82 166.3 1199.91 168.244 1203.26 171.969C1206.63 175.714 1208.4 181.43 1208.4 189.3H1210.4ZM1187.8 164.3C1180.82 164.3 1174.81 166.082 1169.82 169.689L1170.99 171.311C1175.59 167.985 1181.18 166.3 1187.8 166.3V164.3ZM1169.83 169.679C1164.91 173.095 1159.9 178.251 1154.8 185.103L1156.4 186.297C1161.43 179.549 1166.29 174.572 1170.97 171.321L1169.83 169.679ZM1154.6 185.7V256.5H1156.6V185.7H1154.6ZM1155.6 255.5H1143.6V257.5H1155.6V255.5ZM1144.6 256.5V186.3H1142.6V256.5H1144.6ZM1144.6 186.3C1144.6 175.601 1141.76 167.541 1135.86 162.35L1134.54 163.85C1139.85 168.526 1142.6 175.932 1142.6 186.3H1144.6ZM1135.91 163.807L1143.91 155.807L1142.49 154.393L1134.49 162.393L1135.91 163.807ZM1142.68 155.953C1144.93 157.328 1147.1 159.483 1149.18 162.471L1150.82 161.329C1148.63 158.184 1146.27 155.805 1143.72 154.247L1142.68 155.953ZM1149.2 162.494C1151.39 165.461 1152.93 168.678 1153.83 172.151L1155.77 171.649C1154.8 167.922 1153.15 164.473 1150.81 161.306L1149.2 162.494ZM1155.61 172.494C1160.07 166.458 1164.95 162.179 1170.24 159.599L1169.36 157.801C1163.72 160.554 1158.6 165.075 1154 171.306L1155.61 172.494ZM1170.25 159.594C1175.69 156.872 1181.87 155.5 1188.8 155.5V153.5C1181.6 153.5 1175.11 154.928 1169.35 157.806L1170.25 159.594ZM1188.8 155.5C1198.36 155.5 1205.83 157.984 1211.34 162.849L1212.66 161.351C1206.7 156.082 1198.71 153.5 1188.8 153.5V155.5ZM1211.35 162.858C1216.82 167.566 1219.88 174.611 1220.4 184.155L1222.4 184.045C1221.86 174.123 1218.65 166.5 1212.65 161.342L1211.35 162.858ZM1220.4 184.1V239.7H1222.4V184.1H1220.4ZM1220.4 239.7C1220.4 241.803 1221.09 243.644 1222.46 245.169L1223.94 243.831C1222.92 242.689 1222.4 241.331 1222.4 239.7H1220.4ZM1222.53 245.243C1224.04 246.602 1225.81 247.3 1227.8 247.3V245.3C1226.32 245.3 1225.03 244.798 1223.87 243.757L1222.53 245.243ZM1227.8 247.3C1229.28 247.3 1230.61 246.985 1231.76 246.313C1232.91 245.639 1233.81 244.641 1234.49 243.368L1232.72 242.432C1232.19 243.426 1231.53 244.128 1230.75 244.587C1229.96 245.048 1228.99 245.3 1227.8 245.3V247.3ZM1233 243.7L1241.8 250.3L1243 248.7L1234.2 242.1L1233 243.7ZM654.2 503.5L653.663 504.344L653.669 504.348L653.676 504.352L654.2 503.5ZM630 477.3L629.116 477.768L629.119 477.773L630 477.3ZM630.4 404.1L631.282 404.572L631.284 404.567L630.4 404.1ZM712.8 369.9L712.484 370.849L712.494 370.852L712.505 370.855L712.8 369.9ZM730.6 380.1L729.893 380.807L729.898 380.812L729.903 380.817L730.6 380.1ZM707.6 411.3L706.817 410.677L706.173 411.487L707.005 412.104L707.6 411.3ZM714.6 402.5L715.124 401.648L714.369 401.184L713.817 401.877L714.6 402.5ZM723.6 401.9L722.826 401.267L722.826 401.267L723.6 401.9ZM719.8 386.3L719.186 387.089L719.193 387.095L719.2 387.1L719.8 386.3ZM706.2 379.9L705.941 380.866L705.941 380.866L706.2 379.9ZM661 386.5L661.552 387.334L661.555 387.332L661 386.5ZM640.6 409.7L641.492 410.152L641.492 410.152L640.6 409.7ZM640.2 471.7L639.306 472.147L639.309 472.155L639.313 472.163L640.2 471.7ZM660 493.7L659.455 494.538L659.462 494.543L659.47 494.548L660 493.7ZM716 495.3L716.459 496.189L716.464 496.186L716 495.3ZM736.4 477.3L736.971 476.479L736.144 475.904L735.575 476.735L736.4 477.3ZM745.6 483.7L746.427 484.263L746.984 483.444L746.171 482.879L745.6 483.7ZM720.8 505.7L721.242 506.597L721.252 506.592L720.8 505.7ZM689 512.1C676.376 512.1 664.959 508.947 654.724 502.648L653.676 504.352C664.241 510.853 676.024 514.1 689 514.1V512.1ZM654.737 502.656C644.618 496.217 636.668 487.613 630.881 476.827L629.119 477.773C635.065 488.854 643.249 497.716 653.663 504.344L654.737 502.656ZM630.884 476.832C625.096 465.914 622.2 454.076 622.2 441.3H620.2C620.2 454.391 623.171 466.553 629.116 477.768L630.884 476.832ZM622.2 441.3C622.2 428.127 625.228 415.889 631.282 404.572L629.518 403.628C623.305 415.244 620.2 427.806 620.2 441.3H622.2ZM631.284 404.567C637.341 393.112 645.56 384.043 655.942 377.34L654.858 375.66C644.174 382.557 635.726 391.888 629.516 403.633L631.284 404.567ZM655.942 377.34C666.312 370.646 677.724 367.3 690.2 367.3V365.3C677.343 365.3 665.554 368.754 654.858 375.66L655.942 377.34ZM690.2 367.3C697.963 367.3 705.389 368.484 712.484 370.849L713.116 368.951C705.811 366.516 698.17 365.3 690.2 365.3V367.3ZM712.505 370.855C719.713 373.083 725.495 376.409 729.893 380.807L731.307 379.393C726.638 374.724 720.554 371.25 713.095 368.945L712.505 370.855ZM729.903 380.817C734.38 385.166 736.6 390.375 736.6 396.5H738.6C738.6 389.825 736.154 384.101 731.297 379.383L729.903 380.817ZM736.6 396.5C736.6 401.43 734.842 405.644 731.293 409.193L732.707 410.607C736.625 406.689 738.6 401.97 738.6 396.5H736.6ZM731.293 409.193C727.879 412.606 723.8 414.3 719 414.3V416.3C724.333 416.3 728.921 414.394 732.707 410.607L731.293 409.193ZM719 414.3C715.24 414.3 711.645 413.052 708.195 410.496L707.005 412.104C710.755 414.882 714.76 416.3 719 416.3V414.3ZM708.383 411.923L715.383 403.123L713.817 401.877L706.817 410.677L708.383 411.923ZM714.076 403.352C715.89 404.468 717.609 405.1 719.2 405.1V403.1C718.125 403.1 716.777 402.665 715.124 401.648L714.076 403.352ZM719.2 405.1C721.264 405.1 723.004 404.207 724.374 402.533L722.826 401.267C721.796 402.526 720.603 403.1 719.2 403.1V405.1ZM724.374 402.533C725.747 400.855 726.4 398.75 726.4 396.3H724.4C724.4 398.383 723.853 400.012 722.826 401.267L724.374 402.533ZM726.4 396.3C726.4 392.052 724.327 388.445 720.4 385.5L719.2 387.1C722.74 389.755 724.4 392.815 724.4 396.3H726.4ZM720.414 385.511C716.687 382.612 712.025 380.427 706.459 378.934L705.941 380.866C711.309 382.306 715.713 384.388 719.186 387.089L720.414 385.511ZM706.459 378.934C700.918 377.447 695.564 376.7 690.4 376.7V378.7C695.37 378.7 700.549 379.419 705.941 380.866L706.459 378.934ZM690.4 376.7C679.407 376.7 669.413 379.689 660.445 385.668L661.555 387.332C670.187 381.577 679.793 378.7 690.4 378.7V376.7ZM660.448 385.666C651.63 391.5 644.716 399.368 639.708 409.248L641.492 410.152C646.351 400.565 653.037 392.967 661.552 387.334L660.448 385.666ZM639.708 409.248C634.701 419.127 632.2 429.816 632.2 441.3H634.2C634.2 430.117 636.632 419.74 641.492 410.152L639.708 409.248ZM632.2 441.3C632.2 452.381 634.566 462.668 639.306 472.147L641.094 471.253C636.501 462.065 634.2 452.086 634.2 441.3H632.2ZM639.313 472.163C644.19 481.509 650.905 488.974 659.455 494.538L660.545 492.862C652.295 487.492 645.81 480.291 641.087 471.237L639.313 472.163ZM659.47 494.548C668.176 499.989 678.096 502.7 689.2 502.7V500.7C678.437 500.7 668.891 498.077 660.53 492.852L659.47 494.548ZM689.2 502.7C698.954 502.7 708.046 500.531 716.459 496.189L715.541 494.411C707.421 498.602 698.646 500.7 689.2 500.7V502.7ZM716.464 496.186C725.004 491.712 731.93 485.604 737.225 477.865L735.575 476.735C730.47 484.196 723.796 490.088 715.536 494.414L716.464 496.186ZM735.829 478.121L745.029 484.521L746.171 482.879L736.971 476.479L735.829 478.121ZM744.773 483.137C738.331 492.603 730.192 499.82 720.348 504.808L721.252 506.592C731.408 501.446 739.802 493.997 746.427 484.263L744.773 483.137ZM720.358 504.803C710.496 509.668 700.047 512.1 689 512.1V514.1C700.353 514.1 711.104 511.598 721.242 506.597L720.358 504.803ZM783.616 503.9L783.101 504.758L783.108 504.762L783.616 503.9ZM766.416 485.5L767.301 485.035L767.301 485.035L766.416 485.5ZM766.416 431.9L765.533 431.429L765.53 431.435L766.416 431.9ZM783.816 413.3L784.33 414.158L784.335 414.155L783.816 413.3ZM834.216 413.3L833.69 414.151L833.699 414.156L833.708 414.162L834.216 413.3ZM851.616 431.7L850.73 432.165L850.737 432.177L851.616 431.7ZM851.616 485.3L850.737 484.823L850.73 484.835L851.616 485.3ZM834.216 503.9L834.73 504.758L834.735 504.755L834.216 503.9ZM835.816 488.3L835.07 487.633L835.064 487.641L835.816 488.3ZM841.416 437.1L840.517 437.54L840.521 437.547L841.416 437.1ZM828.416 422.5L827.889 423.35L827.889 423.35L828.416 422.5ZM789.816 422.5L790.342 423.35L790.342 423.35L789.816 422.5ZM776.816 437.3L777.714 437.74L777.717 437.732L776.816 437.3ZM776.816 480.1L775.917 480.54L775.921 480.547L776.816 480.1ZM789.816 494.5L789.289 495.35L789.289 495.35L789.816 494.5ZM809.016 509.5C799.711 509.5 791.422 507.34 784.123 503.038L783.108 504.762C790.742 509.26 799.387 511.5 809.016 511.5V509.5ZM784.13 503.043C776.96 498.741 771.352 492.746 767.301 485.035L765.53 485.965C769.745 493.987 775.604 500.259 783.101 504.757L784.13 503.043ZM767.301 485.035C763.252 477.329 761.216 468.559 761.216 458.7H759.216C759.216 468.841 761.313 477.938 765.53 485.965L767.301 485.035ZM761.216 458.7C761.216 448.841 763.252 440.071 767.301 432.365L765.53 431.435C761.313 439.462 759.216 448.559 759.216 458.7H761.216ZM767.298 432.371C771.485 424.52 777.162 418.459 784.33 414.157L783.301 412.443C775.803 416.941 769.88 423.28 765.533 431.429L767.298 432.371ZM784.335 414.155C791.632 409.724 799.916 407.5 809.216 407.5V405.5C799.582 405.5 790.933 407.809 783.297 412.445L784.335 414.155ZM809.216 407.5C818.379 407.5 826.527 409.723 833.69 414.151L834.741 412.449C827.237 407.81 818.719 405.5 809.216 405.5V407.5ZM833.708 414.162C841.01 418.465 846.681 424.459 850.73 432.165L852.501 431.235C848.283 423.208 842.354 416.935 834.723 412.438L833.708 414.162ZM850.737 432.177C854.915 439.881 857.016 448.647 857.016 458.5H859.016C859.016 448.353 856.85 439.253 852.495 431.223L850.737 432.177ZM857.016 458.5C857.016 468.353 854.915 477.119 850.737 484.823L852.495 485.777C856.85 477.747 859.016 468.647 859.016 458.5H857.016ZM850.73 484.835C846.68 492.544 841.005 498.608 833.697 503.045L834.735 504.755C842.359 500.126 848.285 493.79 852.501 485.765L850.73 484.835ZM833.701 503.043C826.539 507.34 818.321 509.5 809.016 509.5V511.5C818.644 511.5 827.225 509.26 834.73 504.757L833.701 503.043ZM809.216 500.7C820.54 500.7 829.692 496.798 836.567 488.959L835.064 487.641C828.606 495.002 820.025 498.7 809.216 498.7V500.7ZM836.561 488.967C843.557 481.148 847.016 470.96 847.016 458.5H845.016C845.016 470.573 841.674 480.252 835.07 487.633L836.561 488.967ZM847.016 458.5C847.016 450.24 845.458 442.949 842.31 436.653L840.521 437.547C843.507 443.518 845.016 450.493 845.016 458.5H847.016ZM842.314 436.66C839.17 430.235 834.712 425.222 828.942 421.65L827.889 423.35C833.319 426.712 837.528 431.432 840.517 437.54L842.314 436.66ZM828.942 421.65C823.169 418.076 816.584 416.3 809.216 416.3V418.3C816.248 418.3 822.462 419.991 827.889 423.35L828.942 421.65ZM809.216 416.3C801.718 416.3 795.065 418.074 789.289 421.65L790.342 423.35C795.766 419.992 802.047 418.3 809.216 418.3V416.3ZM789.289 421.65C783.514 425.225 779.056 430.309 775.914 436.868L777.717 437.732C780.708 431.491 784.917 426.708 790.342 423.35L789.289 421.65ZM775.917 436.86C772.775 443.283 771.216 450.57 771.216 458.7H773.216C773.216 450.83 774.723 443.851 777.714 437.74L775.917 436.86ZM771.216 458.7C771.216 466.83 772.775 474.117 775.917 480.54L777.714 479.66C774.723 473.549 773.216 466.57 773.216 458.7H771.216ZM775.921 480.547C779.067 486.839 783.525 491.782 789.289 495.35L790.342 493.65C784.906 490.285 780.697 485.627 777.71 479.653L775.921 480.547ZM789.289 495.35C795.065 498.926 801.718 500.7 809.216 500.7V498.7C802.047 498.7 795.766 497.008 790.342 493.65L789.289 495.35ZM933.873 408.3H934.873V407.556L934.161 407.342L933.873 408.3ZM933.873 419.5L933.639 420.472L934.873 420.77V419.5H933.873ZM894.273 437.3L893.395 436.822L893.273 437.046V437.3H894.273ZM894.273 508.5V509.5H895.273V508.5H894.273ZM882.273 508.5H881.273V509.5H882.273V508.5ZM873.873 415.3L873.166 414.593L872.413 415.346L873.212 416.05L873.873 415.3ZM881.873 407.3L882.395 406.447L881.723 406.036L881.166 406.593L881.873 407.3ZM888.673 413.9L887.865 414.488L887.865 414.488L888.673 413.9ZM893.273 423.7L892.305 423.951L892.899 426.239L894.128 424.22L893.273 423.7ZM904.473 411.1L904.992 411.955L905.008 411.946L905.023 411.936L904.473 411.1ZM921.873 407.5C925.772 407.5 929.675 408.085 933.586 409.258L934.161 407.342C930.072 406.115 925.975 405.5 921.873 405.5V407.5ZM932.873 408.3V419.5H934.873V408.3H932.873ZM934.108 418.528C930.167 417.577 926.221 417.1 922.273 417.1V419.1C926.059 419.1 929.847 419.557 933.639 420.472L934.108 418.528ZM922.273 417.1C915.308 417.1 909.541 418.809 905.058 422.312L906.289 423.888C910.339 420.724 915.638 419.1 922.273 419.1V417.1ZM905.058 422.312C900.657 425.75 896.775 430.602 893.395 436.822L895.152 437.778C898.438 431.731 902.157 427.116 906.289 423.888L905.058 422.312ZM893.273 437.3V508.5H895.273V437.3H893.273ZM894.273 507.5H882.273V509.5H894.273V507.5ZM883.273 508.5V438.5H881.273V508.5H883.273ZM883.273 438.5C883.273 427.801 880.427 419.741 874.534 414.55L873.212 416.05C878.52 420.726 881.273 428.132 881.273 438.5H883.273ZM874.581 416.007L882.581 408.007L881.166 406.593L873.166 414.593L874.581 416.007ZM881.352 408.153C883.612 409.535 885.787 411.632 887.865 414.488L889.482 413.312C887.293 410.302 884.935 407.999 882.395 406.447L881.352 408.153ZM887.865 414.488C889.922 417.317 891.403 420.469 892.305 423.951L894.241 423.449C893.277 419.731 891.691 416.349 889.482 413.312L887.865 414.488ZM894.128 424.22C897.825 418.146 901.457 414.101 904.992 411.955L903.954 410.245C900.023 412.632 896.188 416.988 892.419 423.18L894.128 424.22ZM905.023 411.936C909.491 409 915.088 407.5 921.873 407.5V405.5C914.792 405.5 908.789 407.067 903.924 410.264L905.023 411.936ZM1053.71 502.9L1054.52 503.481L1055.08 502.706L1054.33 502.116L1053.71 502.9ZM1046.91 508.7L1046.52 507.778L1046.49 507.791L1046.46 507.806L1046.91 508.7ZM1026.11 505.7L1025.43 506.435L1025.44 506.441L1025.45 506.447L1026.11 505.7ZM1020.91 494.1H1021.91V491.409L1020.15 493.447L1020.91 494.1ZM964.111 502.9L963.45 503.65L963.46 503.659L964.111 502.9ZM954.911 480.7H953.911V480.727L953.912 480.754L954.911 480.7ZM946.511 414.7L945.804 413.993L945.051 414.746L945.85 415.45L946.511 414.7ZM954.511 406.7L955.041 405.852L954.366 405.43L953.804 405.993L954.511 406.7ZM963.111 416.1L963.971 415.589L963.971 415.589L963.111 416.1ZM971.911 493.1L971.133 493.728L971.139 493.735L971.145 493.743L971.911 493.1ZM1007.51 494.5L1007 493.642L1006.99 493.648L1007.51 494.5ZM1020.71 479.3L1021.61 479.747L1021.71 479.537L1021.71 479.303L1020.71 479.3ZM1020.91 408.5V407.5H1019.91L1019.91 408.497L1020.91 408.5ZM1032.91 408.5L1033.91 408.502L1033.91 407.5H1032.91V408.5ZM1032.71 491.3L1031.71 491.298V491.3H1032.71ZM1034.51 497.5L1033.74 498.133L1033.77 498.172L1033.8 498.207L1034.51 497.5ZM1045.11 496.1L1045.73 495.316L1044.87 494.634L1044.27 495.557L1045.11 496.1ZM1052.9 502.319C1050.98 505.006 1048.85 506.8 1046.52 507.778L1047.3 509.622C1050.04 508.467 1052.44 506.394 1054.52 503.481L1052.9 502.319ZM1046.46 507.806C1044.23 508.924 1041.59 509.5 1038.51 509.5V511.5C1041.84 511.5 1044.8 510.876 1047.36 509.594L1046.46 507.806ZM1038.51 509.5C1034.1 509.5 1030.2 507.996 1026.78 504.953L1025.45 506.447C1029.22 509.804 1033.59 511.5 1038.51 511.5V509.5ZM1026.79 504.965C1023.52 501.946 1021.91 498.342 1021.91 494.1H1019.91C1019.91 498.925 1021.77 503.054 1025.43 506.435L1026.79 504.965ZM1020.15 493.447C1011.13 503.913 1000.26 509.1 987.511 509.1V511.1C1000.89 511.1 1012.3 505.621 1021.67 494.753L1020.15 493.447ZM987.511 509.1C977.664 509.1 970.125 506.738 964.762 502.141L963.46 503.659C969.297 508.662 977.358 511.1 987.511 511.1V509.1ZM964.772 502.15C959.432 497.446 956.433 490.335 955.909 480.646L953.912 480.754C954.455 490.798 957.59 498.488 963.45 503.65L964.772 502.15ZM955.911 480.7V437.9H953.911V480.7H955.911ZM955.911 437.9C955.911 427.201 953.065 419.141 947.172 413.95L945.85 415.45C951.157 420.126 953.911 427.532 953.911 437.9H955.911ZM947.218 415.407L955.218 407.407L953.804 405.993L945.804 413.993L947.218 415.407ZM953.981 407.548C957.01 409.441 959.775 412.439 962.251 416.611L963.971 415.589C961.381 411.227 958.412 407.959 955.041 405.852L953.981 407.548ZM962.251 416.611C964.693 420.724 965.911 425.147 965.911 429.9H967.911C967.911 424.786 966.595 420.01 963.971 415.589L962.251 416.611ZM965.911 429.9V475.5H967.911V429.9H965.911ZM965.911 475.5C965.911 483.232 967.605 489.354 971.133 493.728L972.689 492.472C969.55 488.579 967.911 482.968 967.911 475.5H965.911ZM971.145 493.743C974.873 498.188 980.815 500.3 988.711 500.3V498.3C981.141 498.3 975.882 496.279 972.677 492.457L971.145 493.743ZM988.711 500.3C996.192 500.3 1002.65 498.667 1008.04 495.352L1006.99 493.648C1001.97 496.733 995.897 498.3 988.711 498.3V500.3ZM1008.03 495.357C1013.56 492.038 1018.07 486.809 1021.61 479.747L1019.82 478.853C1016.41 485.658 1012.13 490.562 1007 493.643L1008.03 495.357ZM1021.71 479.303L1021.91 408.503L1019.91 408.497L1019.71 479.297L1021.71 479.303ZM1020.91 409.5H1032.91V407.5H1020.91V409.5ZM1031.91 408.498L1031.71 491.298L1033.71 491.302L1033.91 408.502L1031.91 408.498ZM1031.71 491.3C1031.71 494.105 1032.34 496.427 1033.74 498.133L1035.28 496.867C1034.28 495.639 1033.71 493.828 1033.71 491.3H1031.71ZM1033.8 498.207C1035.32 499.726 1037.18 500.5 1039.31 500.5V498.5C1037.71 498.5 1036.37 497.941 1035.22 496.793L1033.8 498.207ZM1039.31 500.5C1042.1 500.5 1044.33 499.153 1045.95 496.643L1044.27 495.557C1042.96 497.581 1041.32 498.5 1039.31 498.5V500.5ZM1044.49 496.884L1053.09 503.684L1054.33 502.116L1045.73 495.316L1044.49 496.884ZM1170.14 501.5L1171.04 501.926L1171.39 501.189L1170.74 500.7L1170.14 501.5ZM1164.54 507.3L1165.02 508.176L1165.03 508.167L1165.05 508.157L1164.54 507.3ZM1142.34 504.5L1143.03 503.779L1143.03 503.779L1142.34 504.5ZM1098.14 422.5L1098.71 423.321L1098.71 423.316L1098.72 423.311L1098.14 422.5ZM1083.34 437.7L1082.53 437.103L1082.34 437.368V437.7H1083.34ZM1083.34 508.5V509.5H1084.34V508.5H1083.34ZM1071.34 508.5H1070.34V509.5H1071.34V508.5ZM1062.94 415.1L1062.23 414.393L1061.48 415.146L1062.27 415.85L1062.94 415.1ZM1070.94 407.1L1071.46 406.247L1070.79 405.836L1070.23 406.393L1070.94 407.1ZM1077.74 413.9L1076.92 414.471L1076.92 414.483L1076.93 414.494L1077.74 413.9ZM1082.54 423.9L1081.57 424.151L1082.09 426.18L1083.34 424.494L1082.54 423.9ZM1097.54 410.7L1097.97 411.599L1097.98 411.594L1097.54 410.7ZM1139.74 414.1L1139.07 414.849L1139.08 414.858L1139.74 414.1ZM1149.14 436.1H1150.14V436.073L1150.13 436.045L1149.14 436.1ZM1150.94 496.5L1150.19 497.169L1150.23 497.208L1150.27 497.243L1150.94 496.5ZM1161.34 494.9L1161.94 494.1L1161 493.398L1160.45 494.432L1161.34 494.9ZM1082.34 386.9L1081.69 386.134L1080.94 386.764L1081.56 387.527L1082.34 386.9ZM1093.54 379.9L1093.87 380.841L1093.88 380.837L1093.89 380.833L1093.54 379.9ZM1110.34 378.9L1110 379.842L1110 379.842L1110.34 378.9ZM1116.74 381.9L1117.24 381.034L1117.23 381.03L1117.22 381.026L1116.74 381.9ZM1140.34 378.3L1141.11 377.662L1140.47 376.894L1139.7 377.529L1140.34 378.3ZM1147.14 386.5L1147.76 387.281L1148.56 386.645L1147.91 385.862L1147.14 386.5ZM1136.94 393.3L1137.33 394.219L1137.35 394.211L1137.37 394.203L1136.94 393.3ZM1119.34 394.3L1118.99 395.24L1119.01 395.244L1119.02 395.249L1119.34 394.3ZM1114.14 391.7L1114.65 390.842L1114.64 390.837L1114.63 390.832L1114.14 391.7ZM1109.14 389.3L1108.76 390.228L1108.78 390.234L1108.79 390.24L1109.14 389.3ZM1096.94 389.9L1097.29 390.836L1097.3 390.831L1097.32 390.825L1096.94 389.9ZM1088.94 395.1L1088.16 395.727L1088.79 396.519L1089.58 395.868L1088.94 395.1ZM1169.23 501.074C1168.27 503.122 1166.56 504.92 1164.02 506.443L1165.05 508.157C1167.85 506.48 1169.87 504.411 1171.04 501.926L1169.23 501.074ZM1164.05 506.424C1161.55 507.802 1158.72 508.5 1155.54 508.5V510.5C1159.02 510.5 1162.19 509.732 1165.02 508.176L1164.05 506.424ZM1155.54 508.5C1150.43 508.5 1146.29 506.913 1143.03 503.779L1141.64 505.221C1145.32 508.753 1149.97 510.5 1155.54 510.5V508.5ZM1143.03 503.779C1139.78 500.656 1138.14 496.594 1138.14 491.5H1136.14C1136.14 497.073 1137.96 501.677 1141.64 505.221L1143.03 503.779ZM1138.14 491.5V441.3H1136.14V491.5H1138.14ZM1138.14 441.3C1138.14 433.17 1136.31 426.886 1132.48 422.631C1128.63 418.356 1122.92 416.3 1115.54 416.3V418.3C1122.55 418.3 1127.64 420.244 1130.99 423.969C1134.36 427.714 1136.14 433.43 1136.14 441.3H1138.14ZM1115.54 416.3C1108.56 416.3 1102.55 418.082 1097.55 421.689L1098.72 423.311C1103.33 419.985 1108.91 418.3 1115.54 418.3V416.3ZM1097.57 421.679C1092.65 425.095 1087.64 430.251 1082.53 437.103L1084.14 438.297C1089.17 431.549 1094.03 426.572 1098.71 423.321L1097.57 421.679ZM1082.34 437.7V508.5H1084.34V437.7H1082.34ZM1083.34 507.5H1071.34V509.5H1083.34V507.5ZM1072.34 508.5V438.3H1070.34V508.5H1072.34ZM1072.34 438.3C1072.34 427.601 1069.49 419.541 1063.6 414.35L1062.27 415.85C1067.58 420.526 1070.34 427.932 1070.34 438.3H1072.34ZM1063.64 415.807L1071.64 407.807L1070.23 406.393L1062.23 414.393L1063.64 415.807ZM1070.41 407.953C1072.66 409.328 1074.84 411.483 1076.92 414.471L1078.56 413.329C1076.37 410.184 1074.01 407.805 1071.46 406.247L1070.41 407.953ZM1076.93 414.494C1079.12 417.461 1080.67 420.678 1081.57 424.151L1083.5 423.649C1082.54 419.922 1080.88 416.473 1078.54 413.306L1076.93 414.494ZM1083.34 424.494C1087.8 418.458 1092.68 414.179 1097.97 411.599L1097.1 409.801C1091.45 412.554 1086.34 417.075 1081.73 423.306L1083.34 424.494ZM1097.98 411.594C1103.43 408.872 1109.6 407.5 1116.54 407.5V405.5C1109.33 405.5 1102.84 406.928 1097.09 409.806L1097.98 411.594ZM1116.54 407.5C1126.09 407.5 1133.57 409.984 1139.07 414.849L1140.4 413.351C1134.44 408.082 1126.44 405.5 1116.54 405.5V407.5ZM1139.08 414.858C1144.56 419.566 1147.61 426.611 1148.14 436.155L1150.13 436.045C1149.59 426.123 1146.38 418.5 1140.39 413.342L1139.08 414.858ZM1148.14 436.1V491.7H1150.14V436.1H1148.14ZM1148.14 491.7C1148.14 493.803 1148.82 495.644 1150.19 497.169L1151.68 495.831C1150.65 494.689 1150.14 493.331 1150.14 491.7H1148.14ZM1150.27 497.243C1151.78 498.602 1153.55 499.3 1155.54 499.3V497.3C1154.06 497.3 1152.76 496.798 1151.6 495.757L1150.27 497.243ZM1155.54 499.3C1157.01 499.3 1158.34 498.985 1159.49 498.313C1160.64 497.639 1161.55 496.641 1162.22 495.368L1160.45 494.432C1159.93 495.426 1159.26 496.128 1158.48 496.587C1157.69 497.048 1156.73 497.3 1155.54 497.3V499.3ZM1160.74 495.7L1169.54 502.3L1170.74 500.7L1161.94 494.1L1160.74 495.7ZM1082.98 387.666C1087.06 384.24 1090.69 381.986 1093.87 380.841L1093.2 378.959C1089.71 380.214 1085.87 382.627 1081.69 386.134L1082.98 387.666ZM1093.89 380.833C1097.26 379.539 1100.54 378.9 1103.74 378.9V376.9C1100.27 376.9 1096.75 377.594 1093.18 378.967L1093.89 380.833ZM1103.74 378.9C1106.18 378.9 1108.27 379.223 1110 379.842L1110.67 377.958C1108.67 377.244 1106.35 376.9 1103.74 376.9V378.9ZM1110 379.842C1111.8 380.485 1113.88 381.458 1116.25 382.774L1117.22 381.026C1114.79 379.675 1112.61 378.649 1110.67 377.958L1110 379.842ZM1116.24 382.766C1119.77 384.808 1122.95 385.9 1125.74 385.9V383.9C1123.45 383.9 1120.63 382.992 1117.24 381.034L1116.24 382.766ZM1125.74 385.9C1130.47 385.9 1135.56 383.539 1140.97 379.071L1139.7 377.529C1134.45 381.861 1129.8 383.9 1125.74 383.9V385.9ZM1139.57 378.938L1146.37 387.138L1147.91 385.862L1141.11 377.662L1139.57 378.938ZM1146.51 385.719C1142.54 388.898 1139.21 391.111 1136.51 392.397L1137.37 394.203C1140.27 392.822 1143.73 390.502 1147.76 387.281L1146.51 385.719ZM1136.54 392.381C1133.92 393.505 1130.21 394.1 1125.34 394.1V396.1C1130.33 396.1 1134.35 395.495 1137.33 394.219L1136.54 392.381ZM1125.34 394.1C1123 394.1 1121.12 393.84 1119.65 393.351L1119.02 395.249C1120.75 395.827 1122.87 396.1 1125.34 396.1V394.1ZM1119.68 393.36C1118.29 392.857 1116.62 392.024 1114.65 390.842L1113.62 392.557C1115.65 393.776 1117.45 394.677 1118.99 395.24L1119.68 393.36ZM1114.63 390.832C1112.73 389.747 1111.01 388.919 1109.48 388.36L1108.79 390.24C1110.19 390.748 1111.81 391.52 1113.64 392.568L1114.63 390.832ZM1109.51 388.372C1108.01 387.774 1106.14 387.5 1103.94 387.5V389.5C1106 389.5 1107.59 389.759 1108.76 390.228L1109.51 388.372ZM1103.94 387.5C1101.4 387.5 1098.94 387.993 1096.56 388.975L1097.32 390.825C1099.47 389.94 1101.67 389.5 1103.94 389.5V387.5ZM1096.58 388.964C1094.29 389.823 1091.52 391.642 1088.3 394.332L1089.58 395.868C1092.75 393.224 1095.31 391.577 1097.29 390.836L1096.58 388.964ZM1089.71 394.473L1083.11 386.273L1081.56 387.527L1088.16 395.727L1089.71 394.473ZM1197.19 503.5L1196.61 504.314L1196.61 504.314L1197.19 503.5ZM1182.39 484.9L1183.31 484.504L1183.31 484.504L1182.39 484.9ZM1183.39 432.1L1184.28 432.553L1184.28 432.547L1183.39 432.1ZM1200.59 413.5L1201.1 414.362L1201.1 414.362L1200.59 413.5ZM1238.39 407.5L1238.3 408.496L1238.32 408.498L1238.33 408.498L1238.39 407.5ZM1250.79 408.7L1250.64 409.689L1250.72 409.7H1250.79V408.7ZM1262.79 408.7H1263.79V407.7H1262.79V408.7ZM1264.59 497.5L1263.82 498.133L1263.85 498.172L1263.88 498.207L1264.59 497.5ZM1275.19 496.1L1275.81 495.316L1274.95 494.634L1274.35 495.557L1275.19 496.1ZM1283.79 502.9L1284.6 503.481L1285.16 502.706L1284.41 502.116L1283.79 502.9ZM1276.99 508.7L1276.6 507.778L1276.57 507.791L1276.54 507.806L1276.99 508.7ZM1256.19 505.7L1255.51 506.435L1255.52 506.441L1255.52 506.447L1256.19 505.7ZM1250.99 494.1H1251.99V490.49L1250.13 493.586L1250.99 494.1ZM1238.39 506.3L1237.91 505.42L1237.91 505.42L1238.39 506.3ZM1237.19 495.3L1236.67 494.447L1236.67 494.447L1237.19 495.3ZM1247.99 483.7L1248.88 484.147L1248.89 484.135L1247.99 483.7ZM1250.79 418.5H1251.79V417.53L1250.82 417.5L1250.79 418.5ZM1237.59 418.1L1237.55 419.099L1237.56 419.1L1237.59 418.1ZM1225.99 417.7L1226.02 416.701L1226.01 416.7H1225.99V417.7ZM1198.59 429.1L1197.81 428.472L1197.81 428.472L1198.59 429.1ZM1197.39 487.9L1196.56 488.455L1196.56 488.463L1196.57 488.471L1197.39 487.9ZM1220.79 509.5C1211.77 509.5 1204.11 507.215 1197.77 502.686L1196.61 504.314C1203.33 509.119 1211.41 511.5 1220.79 511.5V509.5ZM1197.77 502.686C1191.39 498.131 1186.57 492.079 1183.31 484.504L1181.47 485.296C1184.87 493.188 1189.92 499.536 1196.61 504.314L1197.77 502.686ZM1183.31 484.504C1180.03 476.909 1178.39 468.512 1178.39 459.3H1176.39C1176.39 468.755 1178.08 477.425 1181.47 485.296L1183.31 484.504ZM1178.39 459.3C1178.39 449.165 1180.36 440.258 1184.28 432.553L1182.5 431.647C1178.42 439.675 1176.39 448.902 1176.39 459.3H1178.39ZM1184.28 432.547C1188.2 424.714 1193.8 418.66 1201.1 414.362L1200.08 412.638C1192.44 417.14 1186.58 423.486 1182.49 431.653L1184.28 432.547ZM1201.1 414.362C1208.39 410.065 1216.94 407.9 1226.79 407.9V405.9C1216.64 405.9 1207.72 408.135 1200.08 412.638L1201.1 414.362ZM1226.79 407.9C1229.82 407.9 1233.65 408.098 1238.3 408.496L1238.47 406.504C1233.79 406.102 1229.89 405.9 1226.79 405.9V407.9ZM1238.33 408.498C1242.98 408.764 1247.08 409.161 1250.64 409.689L1250.94 407.711C1247.3 407.172 1243.13 406.77 1238.45 406.502L1238.33 408.498ZM1250.79 409.7H1262.79V407.7H1250.79V409.7ZM1261.79 408.7V491.3H1263.79V408.7H1261.79ZM1261.79 491.3C1261.79 494.105 1262.42 496.427 1263.82 498.133L1265.36 496.867C1264.36 495.639 1263.79 493.828 1263.79 491.3H1261.79ZM1263.88 498.207C1265.4 499.726 1267.25 500.5 1269.39 500.5V498.5C1267.79 498.5 1266.44 497.941 1265.3 496.793L1263.88 498.207ZM1269.39 500.5C1272.18 500.5 1274.4 499.153 1276.03 496.643L1274.35 495.557C1273.04 497.581 1271.4 498.5 1269.39 498.5V500.5ZM1274.57 496.884L1283.17 503.684L1284.41 502.116L1275.81 495.316L1274.57 496.884ZM1282.98 502.319C1281.06 505.006 1278.93 506.8 1276.6 507.778L1277.38 509.622C1280.12 508.467 1282.52 506.394 1284.6 503.481L1282.98 502.319ZM1276.54 507.806C1274.3 508.924 1271.66 509.5 1268.59 509.5V511.5C1271.91 511.5 1274.87 510.876 1277.44 509.594L1276.54 507.806ZM1268.59 509.5C1264.18 509.5 1260.28 507.996 1256.85 504.953L1255.52 506.447C1259.3 509.804 1263.67 511.5 1268.59 511.5V509.5ZM1256.87 504.965C1253.6 501.946 1251.99 498.342 1251.99 494.1H1249.99C1249.99 498.925 1251.85 503.054 1255.51 506.435L1256.87 504.965ZM1250.13 493.586C1247.02 498.773 1242.95 502.709 1237.91 505.42L1238.86 507.18C1244.23 504.291 1248.56 500.094 1251.85 494.614L1250.13 493.586ZM1237.91 505.42C1232.88 508.133 1227.17 509.5 1220.79 509.5V511.5C1227.47 511.5 1233.5 510.067 1238.86 507.18L1237.91 505.42ZM1220.99 500.7C1227.16 500.7 1232.74 499.189 1237.71 496.153L1236.67 494.447C1232.04 497.278 1226.82 498.7 1220.99 498.7V500.7ZM1237.71 496.153C1242.66 493.127 1246.4 489.123 1248.88 484.147L1247.09 483.253C1244.78 487.877 1241.32 491.606 1236.67 494.447L1237.71 496.153ZM1248.89 484.135C1250.83 480.121 1251.79 475.704 1251.79 470.9H1249.79C1249.79 475.429 1248.88 479.546 1247.09 483.265L1248.89 484.135ZM1251.79 470.9V418.5H1249.79V470.9H1251.79ZM1250.82 417.5L1237.62 417.1L1237.56 419.1L1250.76 419.5L1250.82 417.5ZM1237.62 417.101L1226.02 416.701L1225.95 418.699L1237.55 419.099L1237.62 417.101ZM1225.99 416.7C1213.63 416.7 1204.18 420.581 1197.81 428.472L1199.37 429.728C1205.27 422.419 1214.08 418.7 1225.99 418.7V416.7ZM1197.81 428.472C1191.5 436.291 1188.39 446.465 1188.39 458.9H1190.39C1190.39 446.802 1193.41 437.109 1199.37 429.728L1197.81 428.472ZM1188.39 458.9C1188.39 470.395 1191.1 480.263 1196.56 488.455L1198.22 487.345C1193.02 479.537 1190.39 470.072 1190.39 458.9H1188.39ZM1196.57 488.471C1202.24 496.628 1210.42 500.7 1220.99 500.7V498.7C1211.02 498.7 1203.47 494.905 1198.21 487.329L1196.57 488.471Z" fill="white"/>
</svg>
